<?xml version="1.0" encoding="utf-8"?>
<!-- Generator: Adobe Illustrator 17.0.0, SVG Export Plug-In . SVG Version: 6.00 Build 0)  -->
<!DOCTYPE svg PUBLIC "-//W3C//DTD SVG 1.1//EN" "http://www.w3.org/Graphics/SVG/1.1/DTD/svg11.dtd">
<svg version="1.1" id="Layer_1" xmlns="http://www.w3.org/2000/svg" xmlns:xlink="http://www.w3.org/1999/xlink" x="0px" y="0px"
	 width="145px" height="145px" viewBox="0 0 145 145" enable-background="new 0 0 145 145" xml:space="preserve">
<g>
	<g>
		<path fill="#F26953" d="M139.115,148.865l-0.021-38.817c0-8.173-5.941-14.006-14-14.006h-38
			c2.012-5.66,6.624-10.019,12.969-10.019h34.029c8.06,0,14.957,6.9,14.957,14.968v34.083c0,6.35-4.077,11.702-9.733,13.714
			L139.115,148.865z M133.969,116l-0.037,34.049c0,8.069-6.018,14.243-14.076,14.243h-34.06c-8.061,0-14.594-6.543-14.594-14.612
			l-0.101-34.603c0-7.707,5.992-14.068,13.954-14.068l35.039-0.016c8.058,0,13.858,5.923,13.858,13.991L133.969,116z M80.933,149.68
			c0,2.691,2.177,4.87,4.863,4.87h34.06c2.686,0,4.253-1.864,4.253-4.556L124.083,120H80.982L80.933,149.68z M85.796,105.861
			c-2.686,0-4.863,2.18-4.863,4.865c0,2.691,2.177,4.871,4.863,4.871c2.689,0,4.865-2.179,4.865-4.871
			C90.661,108.041,88.485,105.861,85.796,105.861L85.796,105.861z M85.796,105.861"/>
	</g>
</g>
</svg>
