<?xml version="1.0" encoding="utf-8"?>
<!-- Generator: Adobe Illustrator 17.0.0, SVG Export Plug-In . SVG Version: 6.00 Build 0)  -->
<!DOCTYPE svg PUBLIC "-//W3C//DTD SVG 1.1//EN" "http://www.w3.org/Graphics/SVG/1.1/DTD/svg11.dtd">
<svg version="1.1" id="Layer_1" xmlns="http://www.w3.org/2000/svg" xmlns:xlink="http://www.w3.org/1999/xlink" x="0px" y="0px"
	 width="145px" height="145px" viewBox="0 0 145 145" enable-background="new 0 0 145 145" xml:space="preserve">
<g>
	<g>
		<path fill="#F0AF58" d="M141.016,138.016c4.949-3.476,8.318-8.941,8.318-15.349c0-9.007-6.738-16.836-15.417-18.708
			c-3.893-9.981-13.039-16.938-23.854-16.938c-6.868,0-13.442,3.041-18.347,7.847c-4.479,4.389-7.17,9.952-7.714,16.141
			c-6.267,2.136-10.981,8.216-10.981,14.96c0,5.987,3.726,11.321,8.707,13.966c-3.358,2.918-6.233,6.622-6.452,9.804
			c-0.101,1.475,0.388,2.788,1.377,3.697c0.924,0.85,2.126,1.192,3.59,1.192c2.408,0,5.527-0.925,9.297-2.044
			c3.545-1.052,7.564-2.244,10.569-2.37c0.333-0.014,0.644-0.098,0.925-0.236c3.294,1.16,6.892,1.787,10.596,1.787
			c4.658,0,9.133-0.984,13.048-2.768c0.208,0.061,0.426,0.095,0.653,0.095c2.704,0,6.381,0.925,9.625,1.74
			c3.273,0.823,6.019,1.513,8.18,1.513c1.56,0,2.815-0.36,3.745-1.289c0.91-0.909,1.325-2.181,1.169-3.581
			C147.706,144.384,144.419,140.614,141.016,138.016L141.016,138.016z M129.649,132.423c-0.134,0.023-0.269,0.035-0.401,0.035
			c-1.109,0-2.091-0.796-2.287-1.926c-1.108-6.372-7.195-10.653-13.564-9.547c-3.687,0.641-6.875,3.033-8.526,6.398
			c-0.566,1.153-1.959,1.628-3.11,1.063c-1.152-0.565-1.628-1.958-1.063-3.111c2.305-4.696,6.754-8.035,11.903-8.93
			c4.309-0.749,8.653,0.225,12.23,2.743c3.577,2.517,5.96,6.278,6.71,10.588C131.761,130.999,130.914,132.203,129.649,132.423
			L129.649,132.423z M129.649,132.423"/>
	</g>
</g>
</svg>
