<?xml version="1.0" encoding="utf-8"?>
<!-- Generator: Adobe Illustrator 17.0.0, SVG Export Plug-In . SVG Version: 6.00 Build 0)  -->
<!DOCTYPE svg PUBLIC "-//W3C//DTD SVG 1.1//EN" "http://www.w3.org/Graphics/SVG/1.1/DTD/svg11.dtd">
<svg version="1.1" id="Layer_1" xmlns="http://www.w3.org/2000/svg" xmlns:xlink="http://www.w3.org/1999/xlink" x="0px" y="0px"
	 width="145px" height="145px" viewBox="0 0 145 145" enable-background="new 0 0 145 145" xml:space="preserve">
<g>
	<path fill="#915FE0" d="M141.104,102H76.016c-2.471,0-4.922,1.779-4.922,4.25V144c0,2.471,2.432,4.052,4.903,4.052h65.542
		c2.471,0,4.475-2.003,4.475-4.475v-36.823c0-2.471-2.003-4.475-4.475-4.475L141.104,102z M102.031,142.34l5.664-14.507
		l-11.171-0.453l19.055-19.424l-5.664,14.508l11.171,0.453L102.031,142.34z M102.031,142.34"/>
</g>
<path fill="#915FE0" d="M71.786,130.878h-4.012c-0.877,0-1.77-0.893-1.77-1.77v-8.105c0-0.877,1.119-1.998,1.996-1.998L72,119
	c0.877,0,1.374,1.165,1.374,2.042v8.248C73.374,130.168,72.664,130.878,71.786,130.878L71.786,130.878z M71.786,130.878"/>
</svg>
