<?xml version="1.0" encoding="utf-8"?>
<!-- Generator: Adobe Illustrator 15.0.0, SVG Export Plug-In . SVG Version: 6.00 Build 0)  -->
<!DOCTYPE svg PUBLIC "-//W3C//DTD SVG 1.1//EN" "http://www.w3.org/Graphics/SVG/1.1/DTD/svg11.dtd">
<svg version="1.1" id="图层_1" xmlns="http://www.w3.org/2000/svg" xmlns:xlink="http://www.w3.org/1999/xlink" x="0px" y="0px"
	 width="128.341px" height="111.939px" viewBox="0 0 128.341 111.939" enable-background="new 0 0 128.341 111.939"
	 xml:space="preserve">
<g>
	<path fill="#233F57" d="M42.819,49.45c-10.77,0-19.498,8.729-19.498,19.498s8.729,19.498,19.498,19.498
		c10.769,0,19.498-8.729,19.498-19.498S53.588,49.45,42.819,49.45z M42.819,83.044c-7.785,0-14.096-6.312-14.096-14.096
		s6.311-14.095,14.096-14.095c7.784,0,14.096,6.311,14.096,14.095S50.604,83.044,42.819,83.044z"/>
	<path fill="#D67B2F" d="M128.341,23.583l-1.98-6.98l-5.428,0.697c-1.094-2.088-2.492-3.952-4.121-5.559l2.331-4.859l-6.003-4.074
		l-3.744,4.06c-2.115-0.855-4.363-1.397-6.679-1.579L101.362,0l-7.219,0.739l-0.263,5.628c-2.202,0.727-4.221,1.762-6.021,3.048
		l-4.542-3.256l-5.054,5.205l3.492,4.583c-1.161,1.885-2.044,3.939-2.611,6.093l-5.692,0.436l-0.525,7.236l5.706,1.284
		c0.144,0.982,0.345,1.964,0.623,2.944c0.331,1.166,0.75,2.282,1.244,3.348l-4.116,4.026l4.248,5.881l5.198-2.684
		c1.639,1.479,3.483,2.708,5.471,3.65l-0.562,5.7l7.036,1.775l2.222-5.318c2.184,0.093,4.413-0.134,6.631-0.711l3.174,4.64
		l6.53-3.161l-1.679-5.383c1.825-1.396,3.408-3.047,4.713-4.893l5.287,1.479l2.968-6.62l-4.645-2.979
		c0.497-2.222,0.655-4.539,0.448-6.879L128.341,23.583z M104.287,39.52c-6.483,1.84-13.229-1.923-15.068-8.407
		c-1.84-6.482,1.924-13.228,8.407-15.068c6.481-1.84,13.229,1.924,15.068,8.406C114.534,30.934,110.77,37.68,104.287,39.52z"/>
	<path fill="#A8BCBE" d="M85.638,62.401l-3.061-10.787l-8.389,1.078c-1.689-3.228-3.852-6.108-6.367-8.59l3.602-7.509l-9.277-6.296
		l-5.787,6.275c-3.268-1.322-6.742-2.16-10.319-2.44l-2.096-8.174l-11.154,1.143l-0.407,8.698c-3.401,1.121-6.522,2.723-9.305,4.708
		l-7.02-5.031l-7.811,8.044l5.398,7.083c-1.796,2.915-3.159,6.088-4.037,9.417l-8.796,0.674L0,71.873l8.819,1.985
		c0.22,1.517,0.531,3.034,0.962,4.548c0.513,1.803,1.158,3.529,1.923,5.176l-6.361,6.223l6.564,9.09l8.033-4.147
		c2.533,2.286,5.386,4.185,8.455,5.642l-0.867,8.809l10.873,2.742l3.435-8.221c3.372,0.145,6.819-0.206,10.247-1.098l4.904,7.17
		l10.092-4.885l-2.592-8.32c2.817-2.156,5.266-4.709,7.281-7.561l8.17,2.285l4.587-10.23l-7.177-4.605
		c0.768-3.434,1.014-7.015,0.692-10.631L85.638,62.401z M48.465,87.031c-10.019,2.843-20.444-2.975-23.287-12.993
		s2.974-20.443,12.992-23.286c10.018-2.843,20.444,2.974,23.287,12.991C64.3,73.762,58.482,84.188,48.465,87.031z"/>
	<path fill="#C7531A" d="M100.635,12.503c-8.459,0-15.315,6.857-15.315,15.315c0,8.459,6.856,15.315,15.315,15.315
		c8.457,0,15.313-6.856,15.313-15.315C115.948,19.361,109.092,12.503,100.635,12.503z M100.635,39.009
		c-6.181,0-11.191-5.01-11.191-11.191c0-6.18,5.011-11.189,11.191-11.189c6.179,0,11.189,5.009,11.189,11.189
		C111.824,33.999,106.813,39.009,100.635,39.009z"/>
</g>
</svg>
