<?xml version="1.0" encoding="utf-8"?>
<!-- Generator: Adobe Illustrator 15.0.0, SVG Export Plug-In . SVG Version: 6.00 Build 0)  -->
<!DOCTYPE svg PUBLIC "-//W3C//DTD SVG 1.1//EN" "http://www.w3.org/Graphics/SVG/1.1/DTD/svg11.dtd">
<svg version="1.1" id="图层_1" xmlns="http://www.w3.org/2000/svg" xmlns:xlink="http://www.w3.org/1999/xlink" x="0px" y="0px"
	 width="25.703px" height="30px" viewBox="0 0 25.703 30" enable-background="new 0 0 25.703 30" xml:space="preserve">
<g>
	<defs>
		<rect id="SVGID_1_" x="0.005" width="25.698" height="30"/>
	</defs>
	<clipPath id="SVGID_2_">
		<use xlink:href="#SVGID_1_"  overflow="visible"/>
	</clipPath>
	<path clip-path="url(#SVGID_2_)" fill="#2DBBDB" d="M23.823,22.783l-4.598,4.605l-2.461-2.465c-0.416-0.417-1.091-0.417-1.507,0
		c-0.417,0.417-0.417,1.093,0,1.511l3.199,3.205c0.126,0.126,0.282,0.22,0.452,0.269c0.104,0.035,0.215,0.052,0.324,0.052
		c0.283,0.001,0.555-0.112,0.754-0.313l5.344-5.352c0.417-0.417,0.417-1.094,0-1.512C24.914,22.367,24.24,22.367,23.823,22.783"/>
	<path clip-path="url(#SVGID_2_)" fill="#2DBBDB" d="M22.467,0.003H3.21C1.439,0.003,0,1.443,0,3.212V26.75
		c0,1.771,1.439,3.211,3.21,3.211h10.698c0.592,0,1.069-0.479,1.069-1.071c0-0.591-0.478-1.069-1.069-1.069H3.21
		c-0.59,0-1.07-0.48-1.07-1.07V3.212c0-0.59,0.48-1.069,1.07-1.069h19.257c0.589,0,1.07,0.479,1.07,1.069v13.909
		c0,0.592,0.479,1.07,1.069,1.07c0.592,0,1.07-0.479,1.07-1.07V3.212C25.676,1.443,24.236,0.003,22.467,0.003"/>
</g>
<path fill="#2DBBDB" d="M5.349,8.563h0.002l14.979-0.034c0.592-0.001,1.07-0.474,1.068-1.055c-0.002-0.581-0.481-1.051-1.07-1.051
	h-0.002L5.347,6.456C4.756,6.457,4.277,6.93,4.279,7.511S4.76,8.563,5.349,8.563 M5.349,14.982h0.002l14.979-0.033
	c0.592-0.001,1.07-0.474,1.068-1.056c-0.002-0.581-0.481-1.051-1.07-1.051h-0.002L5.347,12.875
	c-0.591,0.001-1.069,0.474-1.067,1.055C4.281,14.512,4.76,14.982,5.349,14.982 M5.349,21.4h0.005l8.559-0.032
	c0.592-0.003,1.068-0.476,1.066-1.058c-0.004-0.58-0.481-1.05-1.07-1.05h-0.004l-8.56,0.033c-0.592,0.002-1.067,0.476-1.065,1.058
	C4.281,20.932,4.76,21.4,5.349,21.4"/>
</svg>
