<?xml version="1.0" standalone="no"?><!DOCTYPE svg PUBLIC "-//W3C//DTD SVG 1.1//EN" "http://www.w3.org/Graphics/SVG/1.1/DTD/svg11.dtd"><svg t="1504192457031" class="icon" style="" viewBox="0 0 1024 1024" version="1.1" xmlns="http://www.w3.org/2000/svg" p-id="2357" xmlns:xlink="http://www.w3.org/1999/xlink" width="200" height="200"><defs><style type="text/css"></style></defs><path d="M972.337759 405.620568l-98.014308-19.641248c-4.926307-14.171129-10.748305-27.9264-17.178095-41.233826l55.532911-83.299366c16.922183-25.36728 13.563338-59.179657-7.997251-80.708257l-61.546843-61.546843c-12.379744-12.379744-28.726125-18.745556-45.296429-18.745556-12.251788 0-24.631533 3.51879-35.411827 10.748305l-83.299366 55.500922c-13.371404-6.461779-27.126675-12.219799-41.297804-17.146106l-19.641248-98.046297c-5.949955-29.941708-32.244916-51.438318-62.730436-51.438318l-87.01009 0c-30.485521 0-56.748493 21.5286-62.730436 51.438318l-19.641248 98.046297c-14.171129 4.926307-27.9264 10.716316-41.233826 17.146106l-83.267377-55.500922c-10.844272-7.229515-23.192028-10.748305-35.475805-10.748305-16.538315 0-32.884696 6.365812-45.26444 18.745556l-61.514854 61.546843c-21.560589 21.560589-24.919434 55.340977-7.997251 80.708257l55.500922 83.299366c-6.461779 13.339415-12.219799 27.094686-17.146106 41.265815l-98.078286 19.609259c-29.909719 5.981944-51.438318 32.244916-51.438318 62.730436l0 87.01009c0 30.485521 21.5286 56.780482 51.438318 62.730436l98.046297 19.673237c4.926307 14.171129 10.716316 27.9264 17.146106 41.233826l-55.468933 83.299366c-16.922183 25.36728-13.563338 59.179657 7.997251 80.708257l61.546843 61.546843c12.379744 12.379744 28.726125 18.745556 45.26444 18.745556 12.283777 0 24.663522-3.550779 35.443816-10.748305l83.299366-55.532911c13.339415 6.493768 27.094686 12.251788 41.265815 17.178095l19.609259 98.014308c5.981944 29.941708 32.244916 51.470307 62.730436 51.470307l87.01009 0c30.485521 0 56.780482-21.560589 62.730436-51.470307l19.673237-98.014308c14.171129-4.926307 27.9264-10.748305 41.233826-17.178095l83.299366 55.532911c10.812283 7.197526 23.192028 10.748305 35.411827 10.748305 16.570304 0 32.916685-6.365812 45.296429-18.745556l61.546843-61.546843c21.560589-21.560589 24.919434-55.340977 7.997251-80.708257l-55.532911-83.299366c6.493768-13.371404 12.251788-27.126675 17.178095-41.297804l98.014308-19.609259c29.909719-5.917966 51.470307-32.244916 51.470307-62.730436l0-87.01009c0-30.485521-21.560589-56.748493-51.470307-62.730436zM861.751773 575.002343c-22.232358 4.446472-40.434101 20.313017-47.85555 41.74565-4.126581 11.803942-8.924932 23.256006-14.299085 34.35619-9.94858 20.440973-8.253163 44.560682 4.318516 63.402205l55.532911 83.299366-61.546843 61.546843-83.299366-55.532911c-10.684327-7.133548-23.064072-10.748305-35.475805-10.748305-9.500734 0-19.065446 2.111274-27.862422 6.365812-11.132173 5.374153-22.552248 10.236481-34.420168 14.363063-21.368655 7.421449-37.2352 25.623192-41.681672 47.85555l-19.673237 98.078286-87.01009 0-19.609259-98.078286c-4.446472-22.232358-20.313017-40.434101-41.713661-47.85555-11.803942-4.126581-23.287995-8.924932-34.388179-14.299085-8.828965-4.318516-18.361688-6.42979-27.894411-6.42979-12.443722 0-24.791478 3.614757-35.475805 10.748305l-83.299366 55.532911-61.546843-61.546843 55.500922-83.299366c12.571678-18.873512 14.203118-42.993221 4.382494-63.338227-5.374153-11.132173-10.204492-22.552248-14.331074-34.420168-7.421449-21.368655-25.655181-37.2352-47.85555-41.681672l-98.046297-19.673237-0.063978-87.042079 98.078286-19.609259c22.200369-4.446472 40.434101-20.313017 47.85555-41.713661 4.126581-11.803942 8.892943-23.287995 14.299085-34.388179 9.916591-20.408984 8.253163-44.528693-4.350505-63.370216l-55.468933-83.299366 61.514854-61.546843 83.299366 55.500922c10.684327 7.133548 23.064072 10.748305 35.475805 10.748305 9.500734 0 19.033457-2.111274 27.862422-6.365812 11.100184-5.374153 22.552248-10.204492 34.388179-14.331074 21.400644-7.421449 37.267189-25.655181 41.713661-47.85555l19.641248-98.046297 87.01009-0.031989 19.609259 98.078286c4.446472 22.200369 20.313017 40.434101 41.74565 47.85555 11.803942 4.126581 23.256006 8.892943 34.35619 14.299085 8.860954 4.286527 18.361688 6.397801 27.9264 6.397801 12.443722 0 24.791478-3.614757 35.475805-10.748305l83.299366-55.500922 61.546843 61.546843-55.532911 83.299366c-12.571678 18.873512-14.171129 42.961232-4.382494 63.338227 5.374153 11.100184 10.236481 22.552248 14.363063 34.388179 7.421449 21.400644 25.623192 37.267189 47.85555 41.713661l98.014308 19.641248 0.095967 87.01009-98.078286 19.641248zM511.984005 287.933023c-123.6375 0-223.923026 100.285527-223.923026 223.923026 0 123.669489 100.285527 223.923026 223.923026 223.923026s223.923026-100.285527 223.923026-223.923026c0-123.6375-100.285527-223.923026-223.923026-223.923026zM511.984005 707.820687c-108.186811 0-195.932648-87.777826-195.932648-195.932648s87.745837-195.932648 195.932648-195.932648c108.154822 0 195.932648 87.745837 195.932648 195.932648 0 108.154822-87.777826 195.932648-195.932648 195.932648zM511.984005 383.900034c-70.695698 0-127.956015 57.260317-127.956015 127.956015s57.260317 127.956015 127.956015 127.956015c70.663709 0 127.956015-57.292306 127.956015-127.956015s-57.292306-127.956015-127.956015-127.956015zM511.984005 607.85505c-52.97379 0-95.967011-42.993221-95.967011-95.967011s42.993221-95.967011 95.967011-95.967011 95.967011 42.993221 95.967011 95.967011c0 52.97379-42.993221 95.967011-95.967011 95.967011z" p-id="2358"></path></svg>