<?xml version="1.0" encoding="utf-8"?>
<!-- Generator: Adobe Illustrator 17.0.0, SVG Export Plug-In . SVG Version: 6.00 Build 0)  -->
<!DOCTYPE svg PUBLIC "-//W3C//DTD SVG 1.1//EN" "http://www.w3.org/Graphics/SVG/1.1/DTD/svg11.dtd">
<svg version="1.1" id="图层_1" xmlns="http://www.w3.org/2000/svg" xmlns:xlink="http://www.w3.org/1999/xlink" x="0px" y="0px"
	 width="61.01px" height="60.027px" viewBox="0 0 61.01 60.027" enable-background="new 0 0 61.01 60.027" xml:space="preserve">
<g display="none">
	<g display="inline">
		<path fill="#AABEC2" d="M32.958,38.302c-6.235,3.563-14.252,0.891-16.924-5.345c-3.563-6.235-0.891-14.252,5.345-16.924
			c6.235-3.563,13.361-0.891,16.924,5.345S39.193,35.63,32.958,38.302 M54.336,24.941c-2.672-8.908-2.672-8.908-2.672-8.908
			c-7.126,0.891-7.126,0.891-7.126,0.891c-0.891-1.782-1.782-2.672-2.672-3.563c2.672-7.126,2.672-7.126,2.672-7.126
			c-8.017-4.454-8.017-4.454-8.017-4.454c-4.454,6.235-4.454,6.235-4.454,6.235c-1.782-0.891-3.563-0.891-5.345-0.891
			C24.05,0,24.05,0,24.05,0c-8.908,2.672-8.908,2.672-8.908,2.672c0.891,7.126,0.891,7.126,0.891,7.126
			c-0.891,0.891-1.782,1.782-2.672,2.672C6.235,9.798,6.235,9.798,6.235,9.798c-4.454,8.017-4.454,8.017-4.454,8.017
			c5.345,4.454,5.345,4.454,5.345,4.454c0,1.782-0.891,2.672-0.891,4.454C0,29.395,0,29.395,0,29.395
			c1.782,8.908,1.782,8.908,1.782,8.908c8.017-0.891,8.017-0.891,8.017-0.891c0.891,1.782,1.782,2.672,2.672,4.454
			c-2.672,6.235-2.672,6.235-2.672,6.235c8.017,4.454,8.017,4.454,8.017,4.454c4.454-5.345,4.454-5.345,4.454-5.345
			c0.891,0,2.672,0,4.454,0c2.672,7.126,2.672,7.126,2.672,7.126c8.908-2.672,8.908-2.672,8.908-2.672
			c-0.891-7.126-0.891-7.126-0.891-7.126c1.782-0.891,2.672-1.782,3.563-2.672c7.126,2.672,7.126,2.672,7.126,2.672
			c4.454-8.017,4.454-8.017,4.454-8.017c-6.235-4.454-6.235-4.454-6.235-4.454c0.891-1.782,0.891-2.672,0.891-4.454L54.336,24.941
			L54.336,24.941L54.336,24.941z"/>
		<polygon fill="#2DBBDB" points="32.381,28.165 25.188,24.012 25.188,32.318 		"/>
	</g>
	<g display="inline">
		<g>
			<path fill="#E77738" d="M59.327,51.588h-1.685V43.15c0-5.024-3.665-9.186-8.469-9.977c0.005-0.05,0.027-0.097,0.027-0.149
				c0-0.932-0.753-1.687-1.687-1.687c-0.932,0-1.687,0.755-1.687,1.687c0,0.052,0.025,0.097,0.031,0.149
				c-4.802,0.791-8.467,4.951-8.467,9.977v8.439h-1.689c-0.932,0-1.687,0.755-1.687,1.687s0.755,1.685,1.687,1.685h23.627
				c0.932,0,1.686-0.755,1.686-1.685C61.012,52.343,60.257,51.588,59.327,51.588L59.327,51.588z M47.511,60.027
				c1.865,0,3.377-1.512,3.377-3.375h-6.751C44.136,58.515,45.648,60.027,47.511,60.027L47.511,60.027z"/>
		</g>
	</g>
</g>
<g display="none">
	<g display="inline">
		<g>
			<defs>
				<rect id="SVGID_1_" x="0.505" y="0.027" width="47" height="53.737"/>
			</defs>
			<clipPath id="SVGID_2_">
				<use xlink:href="#SVGID_1_"  overflow="visible"/>
			</clipPath>
			<path clip-path="url(#SVGID_2_)" fill="#AABEC2" d="M4.97,49.219V4.513L4.958,4.507h22.368v11.175
				c0,2.467,2.006,4.474,4.474,4.474h11.157c0,0.036,0.018,0.084,0.018,0.114l0.018,28.95L4.97,49.219L4.97,49.219z M45.334,14.855
				L33.884,2.411c-1.27-1.378-3.533-2.378-5.396-2.378H4.952C2.484,0.039,0.49,2.045,0.496,4.513v44.706
				c0,2.467,1.988,4.468,4.456,4.474h38.047c2.467-0.012,4.461-2.012,4.456-4.48V20.269C47.448,18.466,46.556,16.185,45.334,14.855
				L45.334,14.855z"/>
		</g>
	</g>
	<path display="inline" fill="#AABEC2" d="M32.913,26.863H15.031c-1.234,0-2.234,1-2.234,2.234s1,2.234,2.234,2.234H32.92
		c1.234,0,2.234-1,2.234-2.234C35.153,27.863,34.147,26.863,32.913,26.863 M32.913,38.044H15.031c-1.234,0-2.234,1-2.234,2.234
		c0,1.233,1,2.234,2.234,2.234H32.92c1.234,0,2.234-1,2.234-2.234C35.153,39.044,34.147,38.044,32.913,38.044"/>
	<g display="inline">
		<g>
			<path fill="#2DBBDB" d="M54.379,39.076c0,4.779-3.875,8.655-8.655,8.655s-8.655-3.875-8.655-8.655
				c0-4.779,3.874-8.655,8.655-8.655C50.504,30.421,54.379,34.296,54.379,39.076L54.379,39.076z"/>
			<path fill="#2DBBDB" d="M52.867,48.138c-2.017,1.592-4.517,2.477-7.143,2.477c-2.657,0-5.181-0.905-7.207-2.528
				c-5.34,1.96-7.725,8.811-7.725,11.94h29.713C60.505,56.926,58.102,50.123,52.867,48.138L52.867,48.138z"/>
		</g>
	</g>
</g>
<g display="none">
	<g display="inline">
		<path fill="#AABEC2" d="M11.522,60.027h6.994V44.873h-6.994C11.522,44.873,11.522,60.027,11.522,60.027z M23.179,60.027h6.994
			V37.878h-6.994V60.027z M36.294,60.027h6.994V32.196h-6.994V60.027z M48.971,60.027h6.994V24.181h-6.994V60.027z"/>
	</g>
	<g display="inline">
		<path fill="#E77738" d="M53.236,17.624l2.769-15.883L40.268,5.239l4.808,4.663l-13.697,14.28l-6.703-6.12L5.005,38.316
			l2.914,2.769l16.903-17.486l6.849,6.12l16.32-17.048L53.236,17.624z"/>
	</g>
</g>
<path fill="none" stroke="#ABC0C4" stroke-width="3" stroke-miterlimit="10" d="M54.01,47.226H7.51c-2.2,0-4-1.8-4-4V8.64
	c0-2.2,1.8-4,4-4h46.5c2.2,0,4,1.8,4,4v34.586C58.01,45.426,56.21,47.226,54.01,47.226z"/>
<rect x="22.395" y="47.353" fill="#ABC0C4" width="3.549" height="10.647"/>
<rect x="36.59" y="47.353" fill="#ABC0C4" width="3.549" height="10.647"/>
<rect x="16.818" y="56.225" fill="#ABC0C4" width="28.644" height="3.802"/>
<rect x="3.637" y="37.14" fill="#ABC0C4" width="54.247" height="3.897"/>
<path fill="#F27935" d="M31.01,13.14c-5.523,0-10,4.477-10,10s4.477,10,10,10s10-4.477,10-10S36.533,13.14,31.01,13.14z"/>
<rect x="27.01" y="19.14" fill="#FFFFFF" width="7.875" height="8"/>
</svg>
