<?xml version="1.0" encoding="utf-8"?>
<!-- Generator: Adobe Illustrator 17.0.0, SVG Export Plug-In . SVG Version: 6.00 Build 0)  -->
<!DOCTYPE svg PUBLIC "-//W3C//DTD SVG 1.1//EN" "http://www.w3.org/Graphics/SVG/1.1/DTD/svg11.dtd">
<svg version="1.1" id="图层_1" xmlns="http://www.w3.org/2000/svg" xmlns:xlink="http://www.w3.org/1999/xlink" x="0px" y="0px"
	 width="29.968px" height="30.001px" viewBox="0 0 29.968 30.001" enable-background="new 0 0 29.968 30.001" xml:space="preserve">
<g display="none">
	<g display="inline">
		<defs>
			<rect id="SVGID_1_" x="0" y="0.001" width="29.968" height="30"/>
		</defs>
		<clipPath id="SVGID_2_">
			<use xlink:href="#SVGID_1_"  overflow="visible"/>
		</clipPath>
		<path clip-path="url(#SVGID_2_)" fill="#AABEC2" d="M28.829,29.964c-0.225,0-0.555-0.105-0.779-0.33l-4.497-4.497
			c-2.593,2.188-5.966,3.433-9.294,3.433c-3.748,0-7.42-1.529-10.088-4.197c-5.561-5.561-5.561-14.615,0-20.176
			C6.884,1.484,10.467,0,14.259,0c3.657,0,7.24,1.439,9.833,3.957c0.24,0.24,0.33,0.48,0.33,0.795c0,0.66-0.465,1.124-1.124,1.124
			c-0.315,0-0.555-0.105-0.78-0.33c-2.278-2.114-5.216-3.283-8.274-3.283c-3.208,0-6.236,1.259-8.514,3.538
			c-4.692,4.692-4.692,12.337,0,17.043c2.278,2.278,5.306,3.538,8.514,3.538c3.178,0,6.236-1.259,8.604-3.538
			c3.373-3.448,4.422-8.544,2.668-12.966c-0.12-0.15-0.12-0.315-0.12-0.405c0-0.66,0.465-1.124,1.124-1.124
			c0.465,0,0.899,0.33,1.019,0.779c1.964,4.962,1.034,10.478-2.428,14.48l4.497,4.497c0.45,0.45,0.45,1.124,0,1.574
			C29.384,29.86,29.054,29.964,28.829,29.964L28.829,29.964z M28.829,29.964"/>
	</g>
	<circle display="inline" fill="#2DBBDB" cx="8" cy="15.001" r="2"/>
	<circle display="inline" fill="#2DBBDB" cx="14" cy="15.001" r="2"/>
	<circle display="inline" fill="#2DBBDB" cx="20" cy="15.001" r="2"/>
</g>
<g>
	<g>
		<defs>
			<rect id="SVGID_3_" x="0" y="0.001" width="29.968" height="30"/>
		</defs>
		<clipPath id="SVGID_4_">
			<use xlink:href="#SVGID_3_"  overflow="visible"/>
		</clipPath>
		<path clip-path="url(#SVGID_4_)" fill="#AABEC2" d="M28.829,29.964c-0.225,0-0.555-0.105-0.779-0.33l-4.497-4.497
			c-2.593,2.188-5.966,3.433-9.294,3.433c-3.748,0-7.42-1.529-10.088-4.197c-5.561-5.561-5.561-14.615,0-20.176
			C6.884,1.484,10.467,0,14.259,0c3.657,0,7.24,1.439,9.833,3.957c0.24,0.24,0.33,0.48,0.33,0.795c0,0.66-0.465,1.124-1.124,1.124
			c-0.315,0-0.555-0.105-0.78-0.33c-2.278-2.114-5.216-3.283-8.274-3.283c-3.208,0-6.236,1.259-8.514,3.538
			c-4.692,4.692-4.692,12.337,0,17.043c2.278,2.278,5.306,3.538,8.514,3.538c3.178,0,6.236-1.259,8.604-3.538
			c3.373-3.448,4.422-8.544,2.668-12.966c-0.12-0.15-0.12-0.315-0.12-0.405c0-0.66,0.465-1.124,1.124-1.124
			c0.465,0,0.899,0.33,1.019,0.779c1.964,4.962,1.034,10.478-2.428,14.48l4.497,4.497c0.45,0.45,0.45,1.124,0,1.574
			C29.384,29.86,29.054,29.964,28.829,29.964L28.829,29.964z M28.829,29.964"/>
	</g>
	<path fill="#2DBBDB" d="M18.306,17.043l-0.255-0.135l-4.572-3.942l-2.428,2.878c-0.195,0.345-0.525,0.555-0.899,0.555
		c-0.06,0-0.135,0-0.195-0.015H6.614c-0.659,0-1.124-0.465-1.124-1.124c0-0.66,0.465-1.124,1.124-1.124h2.833l2.848-3.328
		c0.195-0.36,0.555-0.54,1.064-0.54c0.18,0,0.36,0,0.525,0.165l4.722,4.092l0.465-0.465c0.21-0.21,0.525-0.33,0.869-0.33h3.373
		c0.315,0,0.6,0.12,0.809,0.345c0.195,0.21,0.3,0.495,0.3,0.765c0,0.66-0.465,1.124-1.124,1.124h-3.013l-0.765,0.765
		c-0.06,0.135-0.18,0.21-0.315,0.225c0,0-0.015,0.015-0.03,0.015c-0.06,0.03-0.15,0.075-0.255,0.075H18.306z M18.306,17.043"/>
</g>
</svg>
