<?xml version="1.0" encoding="utf-8"?>
<!-- Generator: Adobe Illustrator 17.0.0, SVG Export Plug-In . SVG Version: 6.00 Build 0)  -->
<!DOCTYPE svg PUBLIC "-//W3C//DTD SVG 1.1//EN" "http://www.w3.org/Graphics/SVG/1.1/DTD/svg11.dtd">
<svg version="1.1" id="图层_1" xmlns="http://www.w3.org/2000/svg" xmlns:xlink="http://www.w3.org/1999/xlink" x="0px" y="0px"
	 width="47px" height="46.944px" viewBox="0 0 47 46.944" enable-background="new 0 0 47 46.944" xml:space="preserve">
<g>
	<path fill="#FFFFFF" d="M23.5,0C14.094,0,6.167,6.518,3.615,15.422C1.334,16.796,0,19.442,0,22.54c0,4.492,2.739,8.135,7.231,8.135
		c1,0,1.808-0.808,1.808-1.808V16.213c0-0.832-0.59-1.484-1.356-1.695C10.322,8.04,16.415,3.502,23.5,3.502
		S36.678,8.04,39.318,14.518c-0.766,0.21-1.356,0.863-1.356,1.695v12.654c0,1,0.808,1.808,1.808,1.808
		c0.42,0,0.797-0.052,1.186-0.113c-0.585,3.373-2.001,5.887-3.446,7.627c-0.901,1.085-1.825,1.871-2.542,2.373
		c-0.359,0.251-0.638,0.406-0.847,0.508c-0.105,0.051-0.191,0.097-0.226,0.113h-3.389c-0.651-1.887-2.723-3.276-5.197-3.276
		c-2.995,0-5.423,2.023-5.423,4.519c0,2.496,2.428,4.519,5.423,4.519c2.474,0,4.546-1.389,5.197-3.277h3.559
		c0.611,0,0.766-0.163,1.13-0.339c0.363-0.176,0.79-0.418,1.243-0.734c0.905-0.633,1.997-1.556,3.05-2.825
		c1.906-2.295,3.68-5.704,4.124-10.281C45.742,28.074,47,25.527,47,22.54c0-3.098-1.334-5.744-3.615-7.118
		C40.833,6.518,32.906,0,23.5,0L23.5,0z M23.5,0"/>
</g>
</svg>
