<?xml version="1.0" encoding="utf-8"?>
<!-- Generator: Adobe Illustrator 15.0.0, SVG Export Plug-In . SVG Version: 6.00 Build 0)  -->
<!DOCTYPE svg PUBLIC "-//W3C//DTD SVG 1.1//EN" "http://www.w3.org/Graphics/SVG/1.1/DTD/svg11.dtd">
<svg version="1.1" id="图层_1" xmlns="http://www.w3.org/2000/svg" xmlns:xlink="http://www.w3.org/1999/xlink" x="0px" y="0px"
	 width="31.961px" height="32px" viewBox="0 0 31.961 32" enable-background="new 0 0 31.961 32" xml:space="preserve">
<g>
	<defs>
		<rect id="SVGID_1_" x="0.006" width="31.955" height="32"/>
	</defs>
	<clipPath id="SVGID_2_">
		<use xlink:href="#SVGID_1_"  overflow="visible"/>
	</clipPath>
	<path clip-path="url(#SVGID_2_)" fill="#88A6AA" d="M25.538,22.399c-0.214-0.001-0.419,0.084-0.57,0.235
		c-0.151,0.15-0.235,0.355-0.234,0.569v6.009c0,0.686-0.522,1.207-1.208,1.207H2.803c-0.686,0-1.207-0.521-1.207-1.207V2.825
		c0-0.686,0.521-1.208,1.207-1.208H23.54c0.687,0,1.207,0.522,1.207,1.208v2.4c0,0.447,0.358,0.805,0.806,0.805
		s0.806-0.358,0.806-0.805V2.81c0-1.566-1.238-2.803-2.804-2.803H2.803C1.238,0.007,0,1.244,0,2.81v26.342
		c0,1.566,1.238,2.803,2.803,2.803H23.54c1.565,0,2.803-1.236,2.803-2.803v-6.008C26.343,22.758,25.985,22.399,25.538,22.399z"/>
	<path clip-path="url(#SVGID_2_)" fill="#88A6AA" d="M31.427,11.711l-0.402-0.955l-3.489,3.37c-0.313,0.313-0.76,0.477-1.207,0.477
		s-0.88-0.164-1.208-0.477c-0.313-0.313-0.477-0.716-0.477-1.163c0-0.447,0.164-0.835,0.477-1.118l3.489-3.37L27.61,8.073
		c-0.835-0.313-1.759-0.522-2.684-0.522c-1.878,0-3.607,0.686-4.919,1.968c-1.969,1.879-2.564,4.726-1.565,7.201l-6.65,6.44
		c-0.521,0.521-0.835,1.207-0.835,1.922c0,0.717,0.284,1.402,0.835,1.924c0.522,0.521,1.237,0.805,1.998,0.805
		s1.446-0.283,1.998-0.805l6.679-6.439c0.806,0.282,1.685,0.446,2.52,0.446c1.878,0,3.607-0.687,4.919-1.968
		C31.903,17.107,32.515,14.229,31.427,11.711 M28.952,18.031c-1.044,0.998-2.446,1.565-3.921,1.565c-0.835,0-1.64-0.164-2.4-0.522
		l-0.447-0.193l-7.409,7.082c-0.522,0.521-1.446,0.521-1.968,0c-0.238-0.239-0.403-0.567-0.403-0.926
		c0-0.357,0.165-0.685,0.403-0.924l7.408-7.125l-0.192-0.447c-0.999-2.043-0.567-4.488,1.088-6.008
		c1.043-0.999,2.445-1.566,3.92-1.566c0.358,0,0.687,0.045,1.044,0.075l-1.878,1.759c-0.596,0.566-0.924,1.327-0.924,2.117
		c0,0.805,0.313,1.565,0.924,2.117c0.596,0.566,1.356,0.88,2.206,0.88s1.595-0.314,2.207-0.88l1.878-1.804
		C30.785,14.99,30.234,16.794,28.952,18.031 M21.9,5.613c0-0.447-0.313-0.805-0.805-0.805H5.174c-0.447,0-0.806,0.358-0.806,0.805
		c0,0.447,0.358,0.805,0.806,0.805h15.967C21.543,6.418,21.9,6.06,21.9,5.613 M16.742,11.591c0-0.447-0.313-0.805-0.805-0.805H5.174
		c-0.447,0-0.806,0.358-0.806,0.805c0,0.447,0.358,0.805,0.806,0.805h10.764C16.369,12.381,16.742,12.022,16.742,11.591
		 M5.174,16.794c-0.447,0-0.806,0.358-0.806,0.805c0,0.447,0.358,0.806,0.806,0.806h7.961c0.446,0,0.805-0.358,0.805-0.806
		c0-0.446-0.313-0.805-0.805-0.805H5.174z"/>
</g>
</svg>
