<?xml version="1.0" encoding="utf-8"?>
<!-- Generator: Adobe Illustrator 17.0.0, SVG Export Plug-In . SVG Version: 6.00 Build 0)  -->
<!DOCTYPE svg PUBLIC "-//W3C//DTD SVG 1.1//EN" "http://www.w3.org/Graphics/SVG/1.1/DTD/svg11.dtd">
<svg version="1.1" id="图层_1" xmlns="http://www.w3.org/2000/svg" xmlns:xlink="http://www.w3.org/1999/xlink" x="0px" y="0px"
	 width="64px" height="64px" viewBox="0 0 64 64" enable-background="new 0 0 64 64" xml:space="preserve">
<circle fill="#13DDE2" cx="32" cy="32" r="32"/>
<path opacity="0.9" fill="#FFFFFF" d="M13.602,33.302l-1.326-1.437c-0.344-0.381-0.344-0.982,0.055-1.345l3.833-3.543
	c0.184-0.165,0.399-0.252,0.638-0.252c0.271,0,0.509,0.11,0.688,0.308l10.538,11.3l18.135-23.225
	c0.184-0.234,0.454-0.363,0.744-0.363c0.22,0,0.418,0.073,0.583,0.202l4.145,3.199c0.202,0.147,0.326,0.363,0.363,0.62
	c0.018,0.252-0.037,0.509-0.202,0.688L28.501,49.275L13.602,33.302z"/>
</svg>
