<?xml version="1.0" encoding="utf-8"?>
<!-- Generator: Adobe Illustrator 15.0.0, SVG Export Plug-In . SVG Version: 6.00 Build 0)  -->
<!DOCTYPE svg PUBLIC "-//W3C//DTD SVG 1.1//EN" "http://www.w3.org/Graphics/SVG/1.1/DTD/svg11.dtd">
<svg version="1.1" id="图层_1" xmlns="http://www.w3.org/2000/svg" xmlns:xlink="http://www.w3.org/1999/xlink" x="0px" y="0px"
	 width="29.279px" height="23.956px" viewBox="0 0 29.279 23.956" enable-background="new 0 0 29.279 23.956" xml:space="preserve">
<path fill="#2DBBDB" d="M26.016,0H3.264C1.464,0,0,1.345,0,3.006v14.95c0,1.661,1.462,3.006,3.264,3.006h1.615v2.102
	c0,0.518,0.46,0.893,0.97,0.893c0.138,0,0.279-0.027,0.417-0.088l5.948-2.614c0.442-0.192,0.918-0.293,1.401-0.292h12.4
	c1.8,0,3.264-1.345,3.264-3.006V3.008C29.279,1.345,27.815,0,26.016,0 M26.618,3.493v13.521c0,0.75-0.677,1.362-1.507,1.362H13.697
	c-0.665,0-1.336,0.136-1.935,0.397l-4.607,1.988v-1.033c0-0.745-0.671-1.353-1.499-1.353H4.169c-0.831,0-1.507-0.612-1.507-1.362
	V3.493c0-0.751,0.676-1.363,1.507-1.363h20.942C25.941,2.13,26.618,2.742,26.618,3.493 M7.985,7.986
	c0-0.735,0.572-1.331,1.326-1.331h10.657c0.731,0,1.325,0.617,1.325,1.331c0,0.734-0.572,1.331-1.325,1.331H9.312
	C8.581,9.308,7.991,8.716,7.985,7.986 M7.985,13.31c0-0.735,0.572-1.332,1.326-1.332h10.657c0.731,0,1.325,0.618,1.325,1.332
	c0,0.734-0.572,1.33-1.325,1.33H9.312C8.581,14.631,7.991,14.04,7.985,13.31"/>
</svg>
