<?xml version="1.0" encoding="utf-8"?>
<!-- Generator: Adobe Illustrator 17.0.0, SVG Export Plug-In . SVG Version: 6.00 Build 0)  -->
<!DOCTYPE svg PUBLIC "-//W3C//DTD SVG 1.1//EN" "http://www.w3.org/Graphics/SVG/1.1/DTD/svg11.dtd">
<svg version="1.1" id="图层_1" xmlns="http://www.w3.org/2000/svg" xmlns:xlink="http://www.w3.org/1999/xlink" x="0px" y="0px"
	 width="48.565px" height="49.328px" viewBox="0 0 48.565 49.328" enable-background="new 0 0 48.565 49.328" xml:space="preserve">
<g display="none">
	<g display="inline">
		<path fill="#2DBBDB" d="M46.845,20.541L26.879,1.326c-1.47-1.33-3.709-1.33-5.179,0L1.72,20.541
			c-0.792,0.714-0.855,1.935-0.141,2.727c0.714,0.792,1.935,0.855,2.727,0.141l19.98-19.224L44.26,23.401
			c0.792,0.714,2.013,0.651,2.727-0.141c0.714-0.792,0.651-2.013-0.141-2.727V20.541z M41.51,27.669
			c-1.065,0-1.929,0.862-1.932,1.927v14.867h-7.676V31.579c0.001-1.024-0.405-2.007-1.129-2.731
			c-0.724-0.725-1.706-1.132-2.73-1.132h-7.516c-1.025-0.001-2.008,0.405-2.733,1.13c-0.725,0.725-1.131,1.708-1.13,2.733V44.46
			H8.987V29.597c0-0.69-0.368-1.328-0.966-1.673c-0.598-0.345-1.334-0.345-1.932,0c-0.598,0.345-0.966,0.983-0.966,1.673v14.867
			c0,2.134,1.729,3.863,3.868,3.863h30.587c2.134,0,3.864-1.729,3.864-3.863V29.597c0-1.067-0.865-1.932-1.932-1.932V27.669z
			 M20.531,31.579h7.516V44.46h-7.52V31.579H20.531z M20.531,31.579"/>
	</g>
</g>
<g display="none">
	<g display="inline">
		<path fill-rule="evenodd" clip-rule="evenodd" fill="#AABEC2" d="M27.282,30.7c-3.506,2.003-8.013,0.501-9.516-3.005
			c-2.003-3.506-0.501-8.013,3.005-9.516c3.506-2.003,7.512-0.501,9.516,3.005S30.788,29.197,27.282,30.7 M39.302,23.187
			c-1.502-5.008-1.502-5.008-1.502-5.008c-4.007,0.501-4.007,0.501-4.007,0.501c-0.501-1.002-1.002-1.502-1.502-2.003
			c1.502-4.007,1.502-4.007,1.502-4.007c-4.507-2.504-4.507-2.504-4.507-2.504c-2.504,3.506-2.504,3.506-2.504,3.506
			c-1.002-0.501-2.003-0.501-3.005-0.501c-1.502-4.007-1.502-4.007-1.502-4.007c-5.008,1.502-5.008,1.502-5.008,1.502
			c0.501,4.007,0.501,4.007,0.501,4.007c-0.501,0.501-1.002,1.002-1.502,1.502c-4.007-1.502-4.007-1.502-4.007-1.502
			c-2.504,4.507-2.504,4.507-2.504,4.507c3.005,2.504,3.005,2.504,3.005,2.504c0,1.002-0.501,1.502-0.501,2.504
			c-3.506,1.502-3.506,1.502-3.506,1.502C9.753,30.7,9.753,30.7,9.753,30.7c4.507-0.501,4.507-0.501,4.507-0.501
			c0.501,1.002,1.002,1.502,1.502,2.504c-1.502,3.506-1.502,3.506-1.502,3.506c4.507,2.504,4.507,2.504,4.507,2.504
			c2.504-3.005,2.504-3.005,2.504-3.005c0.501,0,1.502,0,2.504,0c1.502,4.007,1.502,4.007,1.502,4.007
			c5.008-1.502,5.008-1.502,5.008-1.502c-0.501-4.007-0.501-4.007-0.501-4.007c1.002-0.501,1.502-1.002,2.003-1.502
			c4.007,1.502,4.007,1.502,4.007,1.502c2.504-4.507,2.504-4.507,2.504-4.507c-3.506-2.504-3.506-2.504-3.506-2.504
			c0.501-1.002,0.501-1.502,0.501-2.504L39.302,23.187L39.302,23.187L39.302,23.187z"/>
		<polygon fill-rule="evenodd" clip-rule="evenodd" fill="#AABEC2" points="26.958,25 22.913,22.665 22.913,27.335 		"/>
	</g>
	
		<path display="inline" fill-rule="evenodd" clip-rule="evenodd" fill="none" stroke="#AABEC2" stroke-width="2" stroke-miterlimit="10" d="
		M36.237,4.727C32.554,2.368,28.175,1,23.476,1c-5.113,0-9.848,1.62-13.719,4.374"/>
	
		<path display="inline" fill-rule="evenodd" clip-rule="evenodd" fill="none" stroke="#AABEC2" stroke-width="2" stroke-miterlimit="10" d="
		M43.838,37.023c2.359-3.683,3.727-8.062,3.727-12.761c0-5.113-1.62-9.848-4.374-13.719"/>
	
		<path display="inline" fill-rule="evenodd" clip-rule="evenodd" fill="none" stroke="#AABEC2" stroke-width="2" stroke-miterlimit="10" d="
		M12.624,45.167c3.788,2.187,8.226,3.351,12.919,3.135c5.108-0.236,9.763-2.072,13.503-5.003"/>
	
		<path display="inline" fill-rule="evenodd" clip-rule="evenodd" fill="none" stroke="#AABEC2" stroke-width="2" stroke-miterlimit="10" d="
		M4.527,12.829c-2.301,3.72-3.599,8.12-3.524,12.819c0.081,5.112,1.776,9.821,4.592,13.648"/>
</g>
<g>
	<path fill="#AABEC2" d="M29.425,8.06v5.531c1.069,1.865,1.684,4.024,1.684,6.328c0,7.04-5.707,12.747-12.747,12.747
		S5.613,26.96,5.613,19.92c0-2.125,0.523-4.128,1.443-5.89V8.09c-3.091,2.953-5.019,7.113-5.019,11.725
		c0,8.958,7.262,16.219,16.219,16.219s16.219-7.262,16.219-16.219C34.475,15.187,32.534,11.015,29.425,8.06z"/>
	<rect x="8.981" y="8.856" fill="#AABEC2" width="3.367" height="10.102"/>
	<rect x="14.032" y="2.121" fill="#AABEC2" width="3.367" height="16.836"/>
	<rect x="19.082" y="7.172" fill="#AABEC2" width="3.367" height="11.785"/>
	<rect x="24.133" y="0.438" fill="#AABEC2" width="3.367" height="18.52"/>
	<rect x="7.057" y="20.641" fill="#AABEC2" width="22.127" height="1.684"/>
	
		<rect x="30.249" y="28.698" transform="matrix(0.7071 -0.7071 0.7071 0.7071 -14.5064 32.477)" fill="#AABEC2" width="3.401" height="10.102"/>
	<g>
		<path fill="#AABEC2" d="M45.713,46.897l-0.615,0.615c-1.088,1.088-2.867,1.088-3.955,0l-8.029-8.029
			c-1.088-1.088-1.088-2.867,0-3.955l0.615-0.615c1.088-1.088,2.867-1.088,3.955,0l8.029,8.029
			C46.8,44.03,46.8,45.809,45.713,46.897z"/>
	</g>
</g>
<g display="none">
	<g display="inline">
		<defs>
			<rect id="SVGID_1_" x="0.783" y="1.263" width="47" height="47.065"/>
		</defs>
		<clipPath id="SVGID_2_">
			<use xlink:href="#SVGID_1_"  overflow="visible"/>
		</clipPath>
		<path clip-path="url(#SVGID_2_)" fill="#AABEC2" d="M0.775,24.766c0,12.98,10.522,23.502,23.502,23.502
			c12.98,0,23.502-10.522,23.502-23.502c0-12.98-10.522-23.502-23.502-23.502C11.297,1.264,0.775,11.786,0.775,24.766L0.775,24.766z
			 M0.775,24.766"/>
	</g>
	<path display="inline" fill="#FFFFFF" d="M43.197,22.418c-0.116-0.268-0.322-0.486-0.582-0.618c-0.23-0.133-0.497-0.185-0.76-0.149
		c-0.866,0.041-1.697-0.145-2.516-0.557c-0.818-0.411-1.401-1.025-1.744-1.847c-0.334-0.821-0.405-1.642-0.202-2.467
		c0.183-0.802,0.6-1.531,1.199-2.094c0.095-0.077,0.201-0.219,0.344-0.429c0.143-0.196,0.199-0.442,0.155-0.68
		c-0.071-0.419-0.213-0.823-0.417-1.193c-0.211-0.401-0.479-0.77-0.795-1.095c-0.308-0.326-0.645-0.623-1.007-0.887
		c-0.323-0.241-0.675-0.443-1.046-0.601c-0.213-0.09-0.464-0.075-0.759,0.046c-0.253,0.101-0.489,0.239-0.701,0.411
		c-0.557,0.615-1.269,1.024-2.112,1.226c-0.843,0.202-1.686,0.127-2.528-0.222c-0.819-0.34-1.436-0.882-1.828-1.628
		c-0.386-0.693-0.59-1.472-0.594-2.265c0.023-0.27-0.018-0.541-0.119-0.793C27.09,6.295,26.889,6.092,26.58,5.96
		c-0.335-0.123-0.681-0.216-1.033-0.278c-0.469-0.089-0.946-0.138-1.424-0.145c-0.494-0.011-0.988,0.034-1.472,0.133
		c-0.474,0.101-0.855,0.289-1.139,0.567c-0.14,0.129-0.236,0.299-0.273,0.486c-0.035,0.207-0.071,0.394-0.083,0.56
		c-0.035,0.155-0.095,0.409-0.202,0.764c-0.252,0.833-0.672,1.606-1.234,2.271c-0.288,0.354-0.659,0.631-1.08,0.808
		c-0.843,0.332-1.674,0.389-2.504,0.172c-0.809-0.209-1.55-0.626-2.148-1.209c-0.166-0.147-0.345-0.278-0.534-0.393
		c-0.166-0.1-0.379-0.128-0.617-0.088c-0.31,0.048-0.62,0.178-0.952,0.398c-0.343,0.224-0.661,0.482-0.95,0.772
		c-0.309,0.297-0.591,0.62-0.843,0.967c-0.234,0.305-0.43,0.639-0.581,0.993c-0.12,0.299-0.168,0.621-0.142,0.942
		c0.035,0.338,0.142,0.589,0.332,0.752c0.606,0.59,1.057,1.318,1.377,2.188c0.321,0.868,0.309,1.727-0.047,2.573
		c-0.332,0.824-0.926,1.447-1.781,1.87c-0.855,0.423-1.709,0.633-2.552,0.623c-0.463-0.023-0.843,0.215-1.139,0.715
		c-0.167,0.271-0.297,0.652-0.38,1.138c-0.095,0.491-0.13,0.982-0.13,1.481c0.012,0.499,0.047,0.97,0.142,1.416
		c0.083,0.445,0.237,0.772,0.464,0.979c0.272,0.286,0.604,0.45,0.973,0.493C7.198,27.951,7.76,28.07,8.3,28.26
		c0.474,0.171,0.913,0.406,1.33,0.695c0.427,0.3,0.748,0.727,0.937,1.221c0.297,0.834,0.333,1.622,0.095,2.36
		c-0.225,0.736-0.593,1.329-1.092,1.775c-0.356,0.332-0.581,0.613-0.665,0.849c-0.08,0.218-0.097,0.454-0.047,0.68
		c0.07,0.315,0.225,0.659,0.463,1.044c0.237,0.379,0.522,0.751,0.866,1.108c0.356,0.355,0.712,0.683,1.08,0.979
		c0.379,0.296,0.724,0.513,1.068,0.653c0.285,0.12,0.581,0.165,0.878,0.128c0.297-0.03,0.558-0.168,0.807-0.409
		c0.558-0.616,1.282-1.057,2.172-1.328c0.89-0.269,1.745-0.234,2.564,0.107c0.819,0.329,1.496,0.949,1.888,1.74
		c0.416,0.808,0.594,1.643,0.546,2.502l0.035,0.015c0,0.225,0.06,0.461,0.179,0.712c0.101,0.227,0.283,0.408,0.511,0.507
		c0.368,0.147,0.748,0.249,1.14,0.306c0.443,0.072,0.892,0.102,1.341,0.089c0.427-0.013,0.843-0.058,1.27-0.134
		c0.391-0.079,0.7-0.182,0.925-0.315c0.512-0.355,0.748-0.824,0.713-1.406c-0.024-0.821,0.177-1.632,0.581-2.347
		c0.427-0.736,1.046-1.286,1.876-1.648c0.376-0.181,0.794-0.257,1.21-0.222c0.411,0.032,0.817,0.11,1.211,0.231
		c0.391,0.117,0.761,0.283,1.092,0.493c0.332,0.208,0.605,0.401,0.819,0.573c0.19,0.187,0.416,0.338,0.665,0.445
		c0.214,0.093,0.499,0.124,0.856,0.1c0.343-0.025,0.711-0.157,1.09-0.395c0.395-0.252,0.758-0.55,1.081-0.888
		c0.344-0.354,0.641-0.72,0.878-1.101c0.248-0.384,0.403-0.729,0.473-1.038c0.048-0.365-0.023-0.736-0.201-1.059
		c-0.086-0.167-0.19-0.325-0.309-0.471c-0.602-0.546-1.024-1.262-1.211-2.053c-0.19-0.799-0.117-1.614,0.226-2.435
		c0.334-0.828,0.947-1.513,1.733-1.937c0.808-0.448,1.638-0.647,2.492-0.604c0.226,0.01,0.474-0.066,0.748-0.221
		c0.274-0.155,0.474-0.445,0.594-0.878c0.196-0.759,0.296-1.54,0.298-2.324C43.516,23.555,43.409,22.906,43.197,22.418
		L43.197,22.418z M24.288,34.939c-5.627,0-10.184-4.557-10.184-10.18s4.558-10.182,10.184-10.182
		c5.627,0,10.185,4.558,10.185,10.182C34.472,30.383,29.914,34.939,24.288,34.939L24.288,34.939z M24.288,19.101
		c-1.501-0.002-2.941,0.594-4.004,1.655c-1.062,1.061-1.658,2.501-1.658,4.002c0,1.501,0.596,2.941,1.658,4.002
		c1.062,1.061,2.502,1.656,4.004,1.655c1.5-0.001,2.937-0.597,3.997-1.658c1.06-1.061,1.655-2.499,1.654-3.999
		c0.001-1.5-0.594-2.938-1.654-3.999C27.225,19.697,25.787,19.101,24.288,19.101L24.288,19.101z M24.288,19.101"/>
</g>
</svg>
