<?xml version="1.0" encoding="utf-8"?>
<!-- Generator: Adobe Illustrator 15.0.0, SVG Export Plug-In . SVG Version: 6.00 Build 0)  -->
<!DOCTYPE svg PUBLIC "-//W3C//DTD SVG 1.1//EN" "http://www.w3.org/Graphics/SVG/1.1/DTD/svg11.dtd">
<svg version="1.1" id="图层_1" xmlns="http://www.w3.org/2000/svg" xmlns:xlink="http://www.w3.org/1999/xlink" x="0px" y="0px"
	 width="30.006px" height="30.043px" viewBox="0 0 30.006 30.043" enable-background="new 0 0 30.006 30.043" xml:space="preserve">
<g>
	<defs>
		<rect id="SVGID_1_" x="0.005" y="0.006" width="30.001" height="30.037"/>
	</defs>
	<clipPath id="SVGID_2_">
		<use xlink:href="#SVGID_1_"  overflow="visible"/>
	</clipPath>
	<path clip-path="url(#SVGID_2_)" fill="#2DBBDB" d="M24.497,6.717L18.65,0.869c-0.51-0.509-1.208-0.82-1.984-0.824L3.719,0
		C1.657,0.049,0,1.709,0,3.771v22.472c0,2.08,1.687,3.763,3.764,3.763h13.141c-0.681-0.512-1.282-1.103-1.799-1.764l0.004,0.003
		H3.719c-1.11-0.003-2.006-0.902-2.01-2.009V3.771c0-1.107,0.907-2.01,1.962-2.01c0.101,0,10.644,0,13.355,0.052l0.201,0.152v3.871
		c0,1.249,1.014,2.263,2.262,2.263h3.92l0.152,0.152v4.941c0.604,0.067,1.191,0.19,1.761,0.368V8.705
		C25.322,7.928,25.006,7.226,24.497,6.717"/>
	<path clip-path="url(#SVGID_2_)" fill="#2DBBDB" d="M6.535,20.66c-0.501,0-0.955,0.401-0.955,0.954
		c0,0.502,0.401,0.955,0.955,0.955h6.598c0-0.022-0.003-0.041-0.003-0.063c0-0.632,0.063-1.248,0.185-1.846H6.535z M22.506,20.225
		c-1.163,0-2.032,0.955-2.032,2.229c0,1.274,0.873,2.229,2.032,2.229c1.163,0,2.032-0.955,2.032-2.229
		C24.59,21.232,23.669,20.225,22.506,20.225"/>
	<path clip-path="url(#SVGID_2_)" fill="#2DBBDB" d="M22.506,16.881c-3.388,0-6.342,2.337-7.501,5.629
		c1.163,3.291,4.064,5.628,7.501,5.628s6.341-2.389,7.5-5.68C28.847,19.214,25.946,16.881,22.506,16.881 M22.506,26.225
		c-1.887,0-3.388-1.646-3.388-3.715c0-2.07,1.501-3.715,3.388-3.715s3.388,1.645,3.388,3.715
		C25.946,24.579,24.445,26.225,22.506,26.225 M19.742,11.261c-0.053-0.502-0.453-0.955-1.007-0.955h-12.2
		c-0.501,0-0.955,0.401-0.955,0.955c0,0.501,0.401,0.954,0.955,0.954h12.252C19.289,12.215,19.742,11.814,19.742,11.261
		 M16.317,15.481H6.535c-0.501,0-0.955,0.401-0.955,0.955c0,0.553,0.401,0.954,0.955,0.954h8.121
		C14.656,17.394,15.447,16.138,16.317,15.481"/>
</g>
</svg>
