<?xml version="1.0" encoding="utf-8"?>
<!-- Generator: Adobe Illustrator 15.0.0, SVG Export Plug-In . SVG Version: 6.00 Build 0)  -->
<!DOCTYPE svg PUBLIC "-//W3C//DTD SVG 1.1//EN" "http://www.w3.org/Graphics/SVG/1.1/DTD/svg11.dtd">
<svg version="1.1" id="图层_1" xmlns="http://www.w3.org/2000/svg" xmlns:xlink="http://www.w3.org/1999/xlink" x="0px" y="0px"
	 width="40.95px" height="41px" viewBox="0 0 40.95 41" enable-background="new 0 0 40.95 41" xml:space="preserve">
<path fill="#FFFFFF" d="M32.721,28.699c-0.274-0.001-0.537,0.107-0.73,0.301c-0.194,0.194-0.303,0.457-0.301,0.73v7.698
	c0,0.879-0.669,1.547-1.547,1.547H3.592c-0.88,0-1.548-0.668-1.548-1.547V3.62c0-0.879,0.668-1.547,1.548-1.547h26.569
	c0.878,0,1.547,0.668,1.547,1.547v3.075c0,0.573,0.458,1.031,1.031,1.031s1.032-0.458,1.032-1.031V3.601
	c0-2.006-1.586-3.591-3.592-3.591H3.592C1.585,0.01,0,1.595,0,3.601v33.751c0,2.005,1.585,3.591,3.592,3.591H30.16
	c2.006,0,3.591-1.586,3.591-3.591v-7.698C33.751,29.157,33.293,28.699,32.721,28.699z"/>
<path fill="#FFFFFF" d="M40.266,15.004l-0.517-1.223l-4.469,4.317c-0.402,0.401-0.974,0.611-1.548,0.611
	c-0.573,0-1.126-0.21-1.546-0.611c-0.402-0.401-0.612-0.917-0.612-1.49c0-0.573,0.21-1.07,0.612-1.433l4.469-4.316l-1.28-0.516
	c-1.068-0.401-2.254-0.669-3.438-0.669c-2.407,0-4.622,0.879-6.303,2.522c-2.522,2.406-3.286,6.055-2.007,9.226l-8.519,8.251
	c-0.669,0.669-1.07,1.547-1.07,2.464s0.363,1.796,1.07,2.464c0.668,0.669,1.585,1.032,2.56,1.032s1.853-0.363,2.56-1.032
	l8.557-8.251c1.032,0.363,2.159,0.573,3.229,0.573c2.407,0,4.623-0.879,6.304-2.521C40.876,21.918,41.659,18.232,40.266,15.004
	 M37.095,23.102c-1.337,1.28-3.133,2.006-5.023,2.006c-1.07,0-2.101-0.21-3.075-0.668l-0.572-0.249l-9.494,9.073
	c-0.668,0.669-1.854,0.669-2.521,0c-0.305-0.305-0.516-0.726-0.516-1.184c0-0.459,0.21-0.879,0.516-1.184l9.493-9.131l-0.248-0.573
	c-1.28-2.617-0.726-5.749,1.395-7.697c1.337-1.28,3.133-2.006,5.023-2.006c0.458,0,0.878,0.057,1.337,0.095l-2.407,2.254
	c-0.764,0.727-1.184,1.7-1.184,2.713c0,1.031,0.401,2.005,1.184,2.712c0.765,0.726,1.738,1.127,2.827,1.127s2.044-0.401,2.827-1.127
	l2.407-2.311C39.444,19.205,38.737,21.517,37.095,23.102 M28.061,7.191c0-0.573-0.401-1.031-1.032-1.031h-20.4
	c-0.572,0-1.03,0.458-1.03,1.031c0,0.573,0.458,1.032,1.03,1.032h20.458C27.602,8.223,28.061,7.764,28.061,7.191 M21.451,14.851
	c0-0.573-0.401-1.032-1.032-1.032H6.628c-0.572,0-1.03,0.459-1.03,1.032c0,0.573,0.458,1.031,1.03,1.031h13.791
	C20.974,15.863,21.451,15.405,21.451,14.851 M6.628,21.517c-0.572,0-1.03,0.458-1.03,1.031c0,0.573,0.458,1.032,1.03,1.032h10.2
	c0.573,0,1.032-0.459,1.032-1.032c0-0.573-0.402-1.031-1.032-1.031H6.628z"/>
<rect x="0.008" fill="none" width="40.942" height="41"/>
</svg>
