<?xml version="1.0" encoding="utf-8"?>
<!-- Generator: Adobe Illustrator 15.0.0, SVG Export Plug-In . SVG Version: 6.00 Build 0)  -->
<!DOCTYPE svg PUBLIC "-//W3C//DTD SVG 1.1//EN" "http://www.w3.org/Graphics/SVG/1.1/DTD/svg11.dtd">
<svg version="1.1" id="图层_1" xmlns="http://www.w3.org/2000/svg" xmlns:xlink="http://www.w3.org/1999/xlink" x="0px" y="0px"
	 width="36.347px" height="31.94px" viewBox="0 0 36.347 31.94" enable-background="new 0 0 36.347 31.94" xml:space="preserve">
<path fill="#2DBBDB" d="M36.342,9.307c-0.011-2.535-1.891-4.61-4.373-4.828c-0.507-0.045-1.05-0.064-1.761-0.064
	c-0.282,0-0.564,0.004-0.846,0.006c-0.279,0.003-0.558,0.006-0.835,0.006h-0.111c-0.121-0.273-0.257-0.539-0.396-0.805l-0.395-0.776
	c-0.279-0.55-0.558-1.102-0.855-1.643C26.339,0.416,25.642,0,24.75,0c-4.381,0.008-8.76,0.006-13.146,0.001
	c-0.77,0-1.38,0.304-1.816,0.903C9.595,1.172,9.422,1.452,9.272,1.745C8.873,2.522,8.403,3.442,7.928,4.426H7.914
	C7.129,4.413,6.345,4.41,5.56,4.425l-0.24,0.003C4.888,4.432,4.44,4.437,3.993,4.521c-2.349,0.449-3.989,2.445-3.99,4.854
	C-0.001,14.426,0,19.477,0.001,24.526v2.331c0.001,2.944,2.143,5.082,5.094,5.083H31.25c2.951-0.001,5.094-2.138,5.094-5.082
	l0.002-12.423C36.347,12.726,36.349,11.017,36.342,9.307 M3.187,26.939C3.184,21.102,3.184,15.263,3.186,9.426
	c0.001-1.101,0.714-1.814,1.816-1.816l1.92-0.003c0.702,0,1.404,0.002,2.118,0.01c0.396,0,0.668-0.171,0.854-0.534
	c0.355-0.695,0.721-1.386,1.085-2.073l0.547-1.039c0.294-0.563,0.684-0.792,1.371-0.792c3.524,0.03,7.031,0.03,10.6,0
	c0.639,0,1.016,0.22,1.303,0.761l0.308,0.578c0.44,0.831,0.881,1.662,1.309,2.5c0.132,0.258,0.373,0.602,0.966,0.602h0.001
	c0.651-0.01,1.302-0.012,1.953-0.012l2.003,0.004c1.106,0.003,1.82,0.713,1.821,1.811c0.002,5.839,0.002,11.677,0,17.516
	c-0.001,1.121-0.705,1.819-1.84,1.819l-5.634,0.002l-7.512-0.001l-3.765,0.001l-9.412-0.003c-0.91-0.002-1.57-0.495-1.767-1.323
	C3.191,27.264,3.187,27.07,3.187,26.939"/>
<path fill="#2DBBDB" d="M18.125,26.301l0.085,0.001c5.065,0,9.231-4.174,9.287-9.305c0.054-5.099-4.106-9.297-9.275-9.356
	L18.114,7.64c-5.043,0-9.199,4.123-9.266,9.191c-0.031,2.51,0.912,4.877,2.659,6.663C13.258,25.281,15.606,26.278,18.125,26.301
	 M18.167,10.806v-0.482l0.026,0.482c3.392,0.014,6.143,2.785,6.134,6.18c-0.01,3.38-2.773,6.13-6.176,6.13
	c-1.64-0.003-3.182-0.648-4.342-1.815c-1.159-1.168-1.796-2.715-1.791-4.356C12.029,13.56,14.788,10.806,18.167,10.806"/>
</svg>
