<?xml version="1.0" standalone="no"?><!DOCTYPE svg PUBLIC "-//W3C//DTD SVG 1.1//EN" "http://www.w3.org/Graphics/SVG/1.1/DTD/svg11.dtd"><svg class="icon" width="200px" height="200.00px" viewBox="0 0 1024 1024" version="1.1" xmlns="http://www.w3.org/2000/svg"><path fill="#333333" d="M714.8 424.5v-181c0-76-61.9-137.9-137.9-137.9H445.6c-76 0-137.9 61.9-137.9 137.9v181H168.9v493.8H855V424.5H714.8zM353.7 243.6c0-50.7 41.2-91.9 91.9-91.9h131.3c50.7 0 91.9 41.2 91.9 91.9v181H353.7v-181z m455.4 628.7H214.9V470.5H809v401.8zM489 723.2v107.9h46v-108c36.8-10.1 63.8-43.9 63.8-83.8 0-47.9-39-86.9-86.9-86.9-47.9 0-86.9 39-86.9 86.9 0 40 27.2 73.8 64 83.9z m22.9-124.8c22.6 0 40.9 18.4 40.9 40.9s-18.4 40.9-40.9 40.9c-22.6 0-40.9-18.4-40.9-40.9s18.3-40.9 40.9-40.9z" /></svg>