<?xml version="1.0" standalone="no"?><!DOCTYPE svg PUBLIC "-//W3C//DTD SVG 1.1//EN" "http://www.w3.org/Graphics/SVG/1.1/DTD/svg11.dtd"><svg class="icon" width="200px" height="200.00px" viewBox="0 0 1024 1024" version="1.1" xmlns="http://www.w3.org/2000/svg"><path fill="#333333" d="M826.026667 656.042667H197.973333c-32.768 0-59.392-26.624-59.392-59.392V197.290667c0-32.768 26.624-59.392 59.392-59.392h628.053334c32.768 0 59.392 26.624 59.392 59.392v399.36c-1.365333 32.768-27.989333 59.392-59.392 59.392zM197.973333 178.858667c-9.557333 0-18.432 8.874667-18.432 18.432v399.36c0 9.557333 8.874667 18.432 18.432 18.432h628.053334c9.557333 0 18.432-8.874667 18.432-19.114667V197.290667c0-9.557333-8.874667-18.432-18.432-18.432H197.973333zM884.736 886.101333H139.264v-130.389333h745.472v130.389333z m-704.512-40.96h663.552v-48.469333H180.224v48.469333zM606.890667 797.354667H416.426667V615.082667h190.464v182.272z m-149.504-40.96h108.544V656.042667H457.386667v100.352zM723.626667 521.557333m-49.834667 0a49.834667 49.834667 0 1 0 99.669333 0 49.834667 49.834667 0 1 0-99.669333 0Z" /></svg>